<?xml version="1.0" encoding="utf-8"?>
<!-- Generator: Adobe Illustrator 26.0.1, SVG Export Plug-In . SVG Version: 6.00 Build 0)  -->
<svg version="1.1" id="Layer_1" xmlns="http://www.w3.org/2000/svg" xmlns:xlink="http://www.w3.org/1999/xlink" x="0px" y="0px"
	 viewBox="0 0 199.11 68.56" style="enable-background:new 0 0 199.11 68.56;" xml:space="preserve">
<style type="text/css">
	.st0{fill:#FFFFFF;}
	.st1{fill:#1C4C7C;}
	.st2{fill:#00ABD6;}
</style>
<g>
	<g>
		<path class="st0" d="M28.32,67.94c-1.21-0.12-2.37-0.54-3.37-1.22c-2.58-1.74-6.33-4.42-9.6-7.33c-4.58-4.08-6.8-7.45-6.8-10.29
			c0-4.37,1.42-7.92,2.48-9.95c-0.67-0.94-1.5-2.23-2.3-3.73c-2.28-4.32-3.07-8.23-2.34-11.61c1.22-5.68,0.09-9.91,0.05-10.05
			L4.97,8.82l4.91,1.58c0.36,0.12,3.53,1.19,7.03,3.68c2.13,1.51,3.94,3.25,5.38,5.15c1.19,1.57,2.13,3.26,2.8,5.05
			c1.02-0.26,2.17-0.46,3.35-0.46c0.05,0,0.09,0,0.14,0c0.04,0,0.09,0,0.13,0c1.19,0,2.36,0.2,3.35,0.46
			c0.67-1.79,1.61-3.48,2.8-5.05c1.44-1.9,3.25-3.63,5.38-5.15c3.45-2.46,6.65-3.55,7.01-3.67l4.94-1.6l-1.48,4.95
			c-0.04,0.14-1.18,4.36,0.05,10.05c0.73,3.38-0.06,7.29-2.34,11.61c-0.8,1.52-1.64,2.8-2.3,3.74c1.06,2.04,2.47,5.58,2.47,9.95
			c0,2.84-2.23,6.21-6.8,10.29c-3.26,2.91-7.02,5.59-9.6,7.33c-0.98,0.66-2.11,1.07-3.28,1.2l-0.24,0.04L28.32,67.94z"/>
		<g>
			<ellipse class="st1" cx="22.87" cy="43.88" rx="1.8" ry="2.11"/>
		</g>
		<g>
			<g>
				<path class="st1" d="M17.11,37.98c0,0,2.02-1.91,6.23-0.86c0,0-0.98-1.52-3.59-1.14c-0.88,0.13-1.69,0.58-2.23,1.28
					C17.21,37.66,17.11,37.98,17.11,37.98z"/>
			</g>
			<g>
				<path class="st1" d="M22.28,46.51c-0.49,0-1.01-0.09-1.53-0.28c-1.07-0.39-1.95-1.12-2.41-1.99c-0.47-0.89-0.59-1.89-0.35-2.83
					c0.24-0.95,0.84-1.71,1.66-2.14s1.79-0.49,2.71-0.16c0.91,0.33,1.66,1,2.13,1.89l0,0c0.48,0.91,0.72,1.96,0.65,2.87
					c-0.08,1.06-0.58,1.88-1.39,2.31C23.32,46.39,22.81,46.51,22.28,46.51z M21.16,39.63c-0.41,0-0.8,0.1-1.16,0.29
					c-0.64,0.34-1.1,0.93-1.29,1.67c-0.19,0.76-0.09,1.57,0.29,2.29c0.37,0.7,1.12,1.32,2.01,1.64c0.88,0.32,1.77,0.31,2.39-0.01
					c0.74-0.39,0.95-1.14,1-1.71c0.06-0.77-0.14-1.67-0.56-2.46l0,0c-0.38-0.73-1-1.27-1.73-1.54
					C21.79,39.69,21.47,39.63,21.16,39.63z"/>
			</g>
		</g>
		<g>
			<path class="st1" d="M40.07,37.36c0,0-2.5-1.22-6.2,1.04c0,0,0.48-1.74,3.09-2.16c0.88-0.14,1.79,0.04,2.51,0.56
				C39.88,37.09,40.07,37.36,40.07,37.36z"/>
		</g>
		<g>
			<path class="st1" d="M35.57,46.51c-0.52,0-1.03-0.11-1.46-0.34c-1.76-0.93-1.7-3.36-0.75-5.17l0,0c0.47-0.89,1.22-1.56,2.13-1.89
				c0.92-0.34,1.88-0.28,2.71,0.16s1.42,1.2,1.66,2.14c0.24,0.93,0.12,1.94-0.35,2.83C38.78,45.61,37.09,46.51,35.57,46.51z
				 M34.02,41.34c-0.8,1.52-0.85,3.49,0.43,4.17c0.62,0.33,1.51,0.33,2.39,0.01c0.89-0.32,1.64-0.94,2.01-1.64
				c0.38-0.73,0.48-1.54,0.29-2.29c-0.19-0.74-0.65-1.33-1.29-1.67c-0.64-0.34-1.39-0.38-2.11-0.12
				C35.01,40.07,34.4,40.62,34.02,41.34L34.02,41.34z"/>
		</g>
		<g>
			<ellipse class="st1" cx="35.01" cy="43.88" rx="1.8" ry="2.11"/>
		</g>
		<path class="st1" d="M48.75,13.17l0.35-1.19l-1.19,0.38c-0.32,0.11-3.26,1.12-6.46,3.39c-1.96,1.39-3.62,2.98-4.93,4.72
			c-1.48,1.96-2.53,4.11-3.11,6.41c-0.94-0.37-2.9-1.03-4.83-1c-1.89-0.03-3.76,0.58-4.83,1c-0.58-2.3-1.62-4.46-3.11-6.41
			c-1.31-1.74-2.97-3.32-4.93-4.72c-3.22-2.3-6.14-3.29-6.46-3.4l-1.18-0.38l0.35,1.19c0.01,0.05,1.36,4.71-0.01,11.07
			c-0.62,2.9,0.1,6.33,2.15,10.21c1.14,2.15,2.37,3.83,2.93,4.55c-0.77,1.24-2.87,5.09-2.87,10.1c0,2.19,2.06,5.13,6.11,8.75
			c3.17,2.82,6.85,5.45,9.38,7.16c0.72,0.49,1.56,0.79,2.42,0.87l0.07,0.01l0.05-0.01c0.86-0.08,1.7-0.38,2.42-0.87
			c2.53-1.7,6.21-4.33,9.38-7.16c4.05-3.62,6.11-6.56,6.11-8.75c0-5.01-2.1-8.86-2.87-10.1c0.56-0.71,1.78-2.38,2.93-4.55
			c2.05-3.88,2.77-7.32,2.15-10.21C47.39,17.87,48.73,13.22,48.75,13.17z M42.06,38.93l0.29,0.41c0.12,0.17,2.9,4.32,2.9,9.76
			c0,1.77-1.96,4.46-5.68,7.77c-3.28,2.93-7.2,5.67-9.24,7.05c-0.52,0.35-1.13,0.58-1.75,0.65c-0.62-0.07-1.23-0.29-1.75-0.65
			c-2.05-1.38-5.97-4.14-9.24-7.05c-3.71-3.31-5.68-6-5.68-7.77c0-5.56,2.87-9.72,2.9-9.76l0.29-0.41l-0.32-0.39
			c-0.26-0.32-6.42-7.92-5.1-14.03c1.04-4.83,0.59-8.72,0.27-10.48c1.13,0.47,3.02,1.38,5,2.78c2.9,2.06,6.59,5.66,7.7,11.1
			l0.17,0.82l0.76-0.37c0.02-0.01,2.51-1.19,4.88-1.19l0.15,0c2.4-0.04,4.97,1.18,5,1.19l0.76,0.37l0.17-0.82
			c1.1-5.43,4.78-9.03,7.67-11.09c1.99-1.42,3.89-2.33,5.02-2.8c-0.32,1.76-0.77,5.65,0.27,10.48c1.33,6.16-5.04,13.95-5.1,14.03
			L42.06,38.93z"/>
		<g>
			<path class="st1" d="M41.12,35.79c0.01-0.03,0.04-0.13,0.08-0.3C41.17,35.6,41.14,35.7,41.12,35.79z"/>
		</g>
		<g>
			<path class="st1" d="M45.29,15.87c-0.57,1.31-5.18,4.62-6.61,8.66s2.22,12.65,2.22,12.65s-0.02-0.46,0.22-1.38l0,0
				c0,0,0,0,0-0.01c0.02-0.1,0.05-0.19,0.08-0.3c0.26-1,1.07-4.36,1.16-8.68c0,0,0.32,3.51,0.32,5.26c0.14-0.25,0.28-0.5,0.44-0.76
				C45.99,26.53,45.29,15.87,45.29,15.87z"/>
		</g>
		<g>
			<path class="st1" d="M11.86,15.87c0.57,1.31,5.18,4.62,6.61,8.66s-2.22,12.65-2.22,12.65s0.02-0.46-0.22-1.38l0,0c0,0,0,0,0-0.01
				c-0.02-0.1-0.05-0.19-0.08-0.3c-0.26-1-1.07-4.36-1.16-8.68c0,0-0.32,3.51-0.32,5.26c-0.14-0.25-0.28-0.5-0.44-0.76
				C11.16,26.53,11.86,15.87,11.86,15.87z"/>
		</g>
		<g>
			<path class="st1" d="M41.12,35.8L41.12,35.8c0,0,0-0.01,0-0.01C41.12,35.8,41.12,35.8,41.12,35.8z"/>
		</g>
		<g>
			<g>
				<path class="st1" d="M25.58,45.46l-0.32-0.19c2.01-3.41-0.21-8.19-0.24-8.24l0.34-0.16c0.02,0.05,0.59,1.26,0.91,2.93
					C26.7,42.02,26.46,43.98,25.58,45.46z"/>
			</g>
			<g>
				<path class="st1" d="M32.3,45.46c-0.88-1.48-1.12-3.44-0.69-5.66c0.32-1.67,0.89-2.88,0.91-2.93l0.34,0.16
					c-0.02,0.05-2.25,4.84-0.24,8.24L32.3,45.46z"/>
			</g>
		</g>
		<g>
			<path class="st1" d="M28.59,53.07c1.91,0,5.49-1.71,5.49-4.26c0-1.88-2.98-2.45-4.55-2.63c-0.62-0.07-1.25-0.07-1.88,0
				c-1.57,0.17-4.55,0.74-4.55,2.63C23.1,51.36,26.68,53.07,28.59,53.07z"/>
		</g>
		<path class="st1" d="M38.9,51.14l-0.3-0.22c-0.12-0.08-0.28-0.06-0.36,0.06c-2.12,2.9-4.3,4.48-6.5,4.7
			c-0.91,0.09-1.8-0.06-2.64-0.44c-0.13-0.06-0.25-0.12-0.38-0.19l-0.13-0.07l-0.13,0.07c-0.12,0.07-0.25,0.13-0.38,0.19
			c-0.84,0.39-1.73,0.54-2.64,0.44c-2.19-0.22-4.38-1.8-6.5-4.7c-0.08-0.12-0.25-0.14-0.36-0.06l-0.3,0.22
			c-0.12,0.08-0.14,0.25-0.06,0.36l0,0c1.49,2.04,3.05,3.49,4.64,4.3c0.1,0.51,0.4,1.78,1.11,3.05c0.92,1.64,2.18,2.7,3.75,3.14
			c0.27,0.08,0.56,0.13,0.84,0.17h0.07c0.29-0.04,0.57-0.1,0.84-0.17c1.57-0.44,2.83-1.5,3.75-3.14c0.71-1.28,1.01-2.54,1.11-3.05
			c1.58-0.81,3.14-2.26,4.64-4.3l0,0C39.04,51.39,39.02,51.23,38.9,51.14z M32.43,58.44c-0.76,1.36-1.77,2.25-3,2.65
			c-0.55,0.18-1.14,0.18-1.69,0c-1.23-0.4-2.23-1.29-3-2.65c-0.45-0.8-0.72-1.61-0.88-2.19c0.49,0.17,0.99,0.28,1.49,0.33
			c0.2,0.02,0.41,0.03,0.61,0.03c0.7,0,1.32-0.13,1.83-0.29c0.11,0.26,0.76,1.87,0.79,3.09v-0.04v0.04
			c0.03-1.22,0.68-2.83,0.79-3.09c0.51,0.17,1.13,0.29,1.83,0.29c0.2,0,0.41-0.01,0.61-0.03c0.49-0.05,0.99-0.16,1.49-0.33
			C33.15,56.82,32.88,57.63,32.43,58.44z"/>
	</g>
	<g>
		<path class="st1" d="M72.78,36.89c0,0,4.02-2.39,3.16-6.06s-4.43-6.77-10.49-6.77s-7.18,1.88-7.18,1.88v25.87
			c0,0,16.04,4.12,19.76-5.14C78.03,46.67,80.68,38.21,72.78,36.89z M65.14,29.6c0.95-0.61,5.14-1.43,5.14,2.24
			c0,3.67-5.14,2.39-5.14,2.39V29.6z M65.14,45.82v-5.06c1.02-0.67,5.53-1.56,5.53,2.45S65.14,45.82,65.14,45.82z"/>
	</g>
	<g>
		<path class="st1" d="M90.02,32.32c-5.41,0.29-10.21,4.27-10.21,9.69s4.79,9.94,10.21,9.94c5.42,0,10.19-4.4,10.19-9.82
			C100.21,36.71,95.91,32,90.02,32.32z M90.02,46.03c-2.15,0-3.9-1.74-3.9-3.9c0-2.15,1.74-3.9,3.9-3.9s3.9,1.74,3.9,3.9
			C93.92,44.28,92.18,46.03,90.02,46.03z"/>
	</g>
	<g>
		<path class="st1" d="M108.2,27.21c0,0-1.56,14.84,0.65,17.08c0,0,1.04,1.26,3.06,0.21l1.63,6.65c0,0-2.04,1.83-5.55,1.38
			c-0.04,0-0.07-0.01-0.11-0.01c-2.94-0.42-5.31-2.62-6.02-5.5c-0.59-2.36-1.25-5.88-1.1-9.36c0,0,0.1-10.9,0.66-11.51L108.2,27.21z
			"/>
	</g>
	<g>
		<path class="st1" d="M116.28,33.53l-3.67-0.27l-0.37,5.81h2.89l-0.2,8.45c0,0-0.44,6.35,6.01,6.35s7.37-3.19,7.37-3.19l-2.07-4.52
			c0,0-1.77,1.49-2.75,1.49c-0.3,0-0.61-0.18-0.9-0.43c-0.8-0.7-1.25-1.73-1.29-2.79l-0.19-4.62l3.63,0.14l1.12-5.43l-3.87-0.2
			l1.02-3.87l-6.28-1.26L116.28,33.53z"/>
	</g>
	<g>
		<path class="st2" d="M170.93,46.61c-0.65-0.61-1.13-1.24-1.6-1.84c-0.93-1.21-1.81-2.35-3.57-2.39h-0.01h-0.01
			c-1.75,0.05-2.64,1.19-3.57,2.4c-0.47,0.6-0.95,1.23-1.6,1.84c-1.74,1.64-2.54,3.41-2.18,4.84c0.23,0.9,0.89,1.57,1.82,1.83
			c0.25,0.07,0.5,0.1,0.74,0.1c0.89,0,1.69-0.42,2.48-0.83c0.78-0.41,1.52-0.79,2.3-0.77h0.04h0.02c0.01,0,0.03,0,0.05,0
			c0.77,0,1.49,0.37,2.25,0.77c1,0.52,2.03,1.06,3.22,0.73c0.93-0.26,1.6-0.92,1.82-1.83C173.47,50.02,172.67,48.25,170.93,46.61z"
			/>
		<path class="st2" d="M160.39,45.63c0.68-0.5,1.03-1.35,0.97-2.4c-0.05-0.96-0.45-1.99-1.11-2.9c-1.44-1.98-3.64-2.76-5-1.76
			c-0.68,0.5-1.03,1.35-0.97,2.4c0.05,0.96,0.45,1.99,1.11,2.9c1.02,1.4,2.41,2.2,3.62,2.2C159.51,46.06,159.99,45.92,160.39,45.63z
			"/>
		<path class="st2" d="M177.35,41.24c0.06-1.05-0.29-1.9-0.97-2.4c-0.69-0.5-1.6-0.56-2.58-0.19c-0.9,0.35-1.76,1.04-2.42,1.95
			c-1.44,1.98-1.5,4.31-0.14,5.3c0.4,0.29,0.88,0.43,1.38,0.43c1.21,0,2.61-0.8,3.62-2.2C176.9,43.23,177.3,42.2,177.35,41.24z"/>
		<path class="st2" d="M160.15,39.18c0.63,0.68,1.37,1.04,2.11,1.04c0.13,0,0.27-0.01,0.4-0.04c0.87-0.16,1.58-0.8,2.01-1.81
			c0.39-0.93,0.49-2.09,0.28-3.25c-0.45-2.53-2.17-4.27-3.9-3.96c-0.87,0.16-1.58,0.8-2.01,1.81c-0.39,0.93-0.49,2.09-0.28,3.25
			C158.97,37.39,159.47,38.44,160.15,39.18z"/>
		<path class="st2" d="M168.36,40.34c0.13,0.02,0.27,0.04,0.4,0.04c1.59,0,3.08-1.66,3.5-3.99c0.21-1.16,0.11-2.32-0.28-3.25
			c-0.42-1.01-1.14-1.65-2.01-1.81c-1.73-0.31-3.45,1.43-3.9,3.96C165.62,37.81,166.62,40.04,168.36,40.34z"/>
		<path class="st2" d="M190.46,42.64l5.43-8.41l-6.61-3.07l-3.33,5.06l-2.78-4.33l-7.18,2.72l5.28,7.69l-5.54,8.6l7.43,2.49
			l2.81-4.54l2.38,3.62l8.11-1.3L190.46,42.64z"/>
		<path class="st2" d="M146.32,33.29c-3.04-0.74-6.13,0.5-7.55,1.22V23.25l-8.03-0.53l-0.32,29.65l8.35,0.99v-2.18
			c1.48,0.82,4.71,2.26,7.82,1.33c2.26-0.67,4-2.45,5.17-5.29c1.38-3.36,1.16-7.13-0.58-10.1
			C149.97,35.07,148.34,33.78,146.32,33.29z M142.1,45.62c-1.71,0-3.11-1.43-3.11-3.19c0-1.76,1.4-3.19,3.11-3.19
			s3.11,1.43,3.11,3.19C145.21,44.19,143.82,45.62,142.1,45.62z"/>
	</g>
</g>
</svg>
