<?xml version="1.0" encoding="utf-8"?>
<!-- Generator: Adobe Illustrator 25.2.1, SVG Export Plug-In . SVG Version: 6.00 Build 0)  -->
<svg version="1.1" id="Layer_1" xmlns="http://www.w3.org/2000/svg" xmlns:xlink="http://www.w3.org/1999/xlink" x="0px" y="0px"
	 viewBox="0 0 948.26 282.67" style="enable-background:new 0 0 948.26 282.67;" xml:space="preserve">
<style type="text/css">
	.st0{fill:#1C4C7C;}
	.st1{fill:#00ABD6;}
</style>
<g>
	<g>
		<ellipse class="st0" cx="97.85" cy="165.24" rx="8.68" ry="10.21"/>
	</g>
	<g>
		<g>
			<path class="st0" d="M70,136.71c0,0,9.78-9.25,30.13-4.14c0,0-4.75-7.34-17.36-5.5c-4.26,0.62-8.18,2.78-10.8,6.2
				C70.49,135.2,70,136.71,70,136.71z"/>
		</g>
		<g>
			<path class="st0" d="M94.98,177.94c-2.37,0-4.88-0.45-7.38-1.36c-5.19-1.88-9.44-5.39-11.67-9.63c-2.26-4.3-2.86-9.16-1.7-13.67
				c1.18-4.58,4.04-8.26,8.04-10.36s8.65-2.37,13.09-0.75c4.38,1.6,8.04,4.84,10.3,9.15l0,0c2.33,4.42,3.46,9.47,3.12,13.85
				c-0.4,5.13-2.79,9.09-6.72,11.15C100,177.4,97.58,177.94,94.98,177.94z M89.57,144.72c-1.96,0-3.88,0.46-5.62,1.38
				c-3.09,1.63-5.3,4.49-6.23,8.08c-0.94,3.65-0.45,7.59,1.4,11.09c1.79,3.4,5.42,6.37,9.71,7.93c4.23,1.54,8.55,1.51,11.56-0.07
				c3.59-1.89,4.6-5.53,4.81-8.25c0.29-3.72-0.7-8.05-2.71-11.89l0,0c-1.84-3.51-4.81-6.15-8.35-7.44
				C92.62,145,91.09,144.72,89.57,144.72z"/>
		</g>
	</g>
	<g>
		<path class="st0" d="M180.99,133.71c0,0-12.09-5.91-29.99,5.05c0,0,2.34-8.42,14.93-10.44c4.25-0.68,8.64,0.21,12.15,2.69
			C180.06,132.41,180.99,133.71,180.99,133.71z"/>
	</g>
	<g>
		<path class="st0" d="M159.23,177.94c-2.53,0-4.97-0.51-7.08-1.62c-8.52-4.48-8.22-16.22-3.61-25l0,0c2.26-4.3,5.92-7.55,10.3-9.15
			c4.44-1.62,9.09-1.35,13.09,0.75s6.85,5.78,8.04,10.36c1.17,4.51,0.57,9.37-1.7,13.67C174.77,173.62,166.58,177.94,159.23,177.94z
			 M151.73,152.99c-3.86,7.33-4.12,16.87,2.1,20.14c3,1.58,7.32,1.61,11.56,0.07c4.29-1.56,7.92-4.52,9.71-7.93
			c1.84-3.51,2.34-7.45,1.4-11.09c-0.93-3.58-3.14-6.45-6.23-8.08s-6.71-1.82-10.19-0.56C156.54,146.84,153.57,149.48,151.73,152.99
			L151.73,152.99z"/>
	</g>
	<g>
		<ellipse class="st0" cx="156.52" cy="165.24" rx="8.68" ry="10.21"/>
	</g>
	<path class="st0" d="M222.93,16.8l1.71-5.74l-5.74,1.86c-1.57,0.52-15.77,5.41-31.22,16.4c-9.47,6.74-17.5,14.41-23.85,22.8
		c-7.17,9.46-12.21,19.89-15.01,31c-4.53-1.79-14-4.97-23.34-4.82c-9.13-0.15-18.18,2.78-23.37,4.82c-2.8-11.12-7.84-21.54-15.01-31
		c-6.35-8.39-14.37-16.06-23.85-22.8C47.69,18.22,33.58,13.41,32.01,12.9l-5.69-1.83l1.7,5.74c0.07,0.22,6.56,22.76-0.06,53.51
		c-3.01,14,0.48,30.61,10.38,49.37c5.49,10.4,11.45,18.5,14.15,21.99c-3.71,5.99-13.86,24.6-13.86,48.83
		c0,10.58,9.94,24.81,29.54,42.29c15.31,13.65,33.1,26.35,45.33,34.59c3.48,2.35,7.52,3.8,11.69,4.21l0.35,0.03l0.22-0.04
		c4.16-0.41,8.2-1.86,11.68-4.21c12.22-8.24,30.01-20.94,45.33-34.59c19.6-17.48,29.54-31.71,29.54-42.29
		c0-24.22-10.15-42.84-13.86-48.83c2.69-3.45,8.61-11.49,14.15-21.99c9.91-18.77,13.4-35.38,10.38-49.37
		C216.36,39.52,222.86,17.02,222.93,16.8z M190.63,141.31l1.39,1.98c0.57,0.84,14.01,20.86,14.01,47.2
		c0,8.58-9.49,21.57-27.44,37.57c-15.87,14.14-34.79,27.42-44.65,34.08c-2.52,1.7-5.45,2.78-8.46,3.12
		c-3.01-0.35-5.94-1.42-8.46-3.12c-9.9-6.69-28.86-20-44.65-34.08c-17.95-15.99-27.44-28.99-27.44-37.57
		c0-26.89,13.88-46.99,14.02-47.19l1.41-1.98l-1.56-1.87c-1.27-1.55-31.03-38.28-24.67-67.8c5.03-23.37,2.85-42.17,1.29-50.68
		c5.45,2.29,14.6,6.65,24.18,13.46C73.63,44.4,91.46,61.81,96.8,88.11l0.81,3.98l3.67-1.77c0.12-0.06,12.12-5.74,23.57-5.74
		l0.71,0.01c11.6-0.19,24.04,5.68,24.17,5.74l3.66,1.77l0.81-3.98c5.34-26.25,23.11-43.64,37.08-53.6
		c9.62-6.86,18.81-11.25,24.29-13.55c-1.56,8.51-3.74,27.31,1.3,50.68c6.42,29.76-24.35,67.43-24.67,67.81L190.63,141.31z"/>
	<g>
		<path class="st0" d="M186.06,126.16c0.05-0.16,0.19-0.64,0.39-1.43C186.31,125.23,186.18,125.7,186.06,126.16z"/>
	</g>
	<g>
		<path class="st0" d="M206.22,29.86c-2.75,6.33-25.06,22.31-31.94,41.86s10.74,61.14,10.74,61.14s-0.1-2.24,1.04-6.65l0,0
			c0,0,0.01-0.02,0.02-0.05c0.12-0.46,0.25-0.93,0.39-1.43c1.28-4.85,5.15-21.09,5.61-41.97c0,0,1.54,16.99,1.56,25.43
			c0.66-1.19,1.36-2.42,2.12-3.69C209.59,81.36,206.22,29.86,206.22,29.86z"/>
	</g>
	<g>
		<path class="st0" d="M44.62,29.86c2.75,6.33,25.06,22.31,31.94,41.86s-10.74,61.14-10.74,61.14s0.1-2.24-1.04-6.65l0,0
			c0,0-0.01-0.02-0.02-0.05c-0.12-0.46-0.25-0.93-0.39-1.43c-1.28-4.85-5.15-21.09-5.61-41.97c0,0-1.54,16.99-1.56,25.43
			c-0.66-1.19-1.36-2.42-2.12-3.69C41.25,81.36,44.62,29.86,44.62,29.86z"/>
	</g>
	<g>
		<path class="st0" d="M186.05,126.21L186.05,126.21c0.01-0.02,0.01-0.04,0.02-0.05C186.05,126.19,186.05,126.21,186.05,126.21z"/>
	</g>
	<g>
		<g>
			<path class="st0" d="M110.96,172.89l-1.55-0.91c9.74-16.47-1.03-39.61-1.14-39.84l1.62-0.77c0.12,0.25,2.87,6.1,4.41,14.16
				C116.36,156.25,115.2,165.71,110.96,172.89z"/>
		</g>
		<g>
			<path class="st0" d="M143.43,172.89c-4.24-7.17-5.4-16.64-3.35-27.37c1.54-8.06,4.29-13.91,4.41-14.16l1.62,0.77
				c-0.11,0.23-10.87,23.38-1.14,39.84L143.43,172.89z"/>
		</g>
	</g>
	<g>
		<path class="st0" d="M125.49,209.69c9.24,0,26.52-8.28,26.52-20.61c0-9.09-14.4-11.86-21.98-12.69c-3.02-0.33-6.06-0.33-9.08,0
			c-7.58,0.83-21.98,3.6-21.98,12.69C98.97,201.41,116.25,209.69,125.49,209.69z"/>
	</g>
	<path class="st0" d="M175.34,200.36l-1.45-1.06c-0.56-0.41-1.35-0.29-1.76,0.27c-10.24,14.01-20.81,21.66-31.42,22.74
		c-4.4,0.45-8.7-0.28-12.77-2.15c-0.62-0.28-1.23-0.6-1.82-0.93l-0.62-0.35l-0.62,0.35c-0.59,0.33-1.21,0.65-1.82,0.93
		c-4.07,1.87-8.37,2.6-12.77,2.15c-10.61-1.07-21.18-8.72-31.42-22.74c-0.41-0.56-1.2-0.68-1.76-0.27l-1.45,1.06
		c-0.56,0.41-0.68,1.2-0.27,1.76l0,0c7.21,9.87,14.75,16.86,22.41,20.79c0.48,2.48,1.91,8.59,5.36,14.76
		c4.44,7.94,10.53,13.05,18.11,15.18c1.32,0.37,2.69,0.65,4.07,0.83h0.33c1.38-0.18,2.75-0.46,4.07-0.83
		c7.58-2.14,13.67-7.24,18.11-15.18c3.45-6.18,4.89-12.28,5.36-14.76c7.66-3.93,15.2-10.93,22.41-20.79l0,0
		C176.02,201.56,175.9,200.77,175.34,200.36z M144.05,235.61c-3.68,6.57-8.54,10.86-14.48,12.81c-2.64,0.87-5.51,0.87-8.15,0
		c-5.94-1.95-10.8-6.24-14.48-12.81c-2.18-3.88-3.49-7.79-4.23-10.6c2.39,0.82,4.8,1.35,7.18,1.59c0.98,0.1,1.96,0.15,2.94,0.15
		c3.4,0,6.4-0.61,8.86-1.41c0.52,1.24,3.67,9.02,3.81,14.93v-0.17v0.17c0.14-5.92,3.29-13.69,3.81-14.93
		c2.47,0.8,5.46,1.41,8.86,1.41c0.97,0,1.96-0.05,2.94-0.15c2.39-0.24,4.79-0.77,7.18-1.59
		C147.54,227.82,146.23,231.73,144.05,235.61z"/>
	<g>
		<path class="st0" d="M324.16,134.81c0,0,19.45-11.57,15.26-29.3S318,72.76,288.7,72.76s-34.72,9.11-34.72,9.11v125.07
			c0,0,77.55,19.94,95.53-24.87C349.52,182.08,362.32,141.21,324.16,134.81z M287.23,99.6c4.6-2.95,24.87-6.89,24.87,10.83
			c0,17.73-24.87,11.57-24.87,11.57V99.6z M287.23,178v-24.46c4.94-3.23,26.75-7.53,26.75,11.83S287.23,178,287.23,178z"/>
	</g>
	<g>
		<path class="st0" d="M407.5,112.71c-26.17,1.42-49.36,20.63-49.36,46.84s23.15,48.07,49.36,48.07s49.24-21.25,49.24-47.46
			C456.74,133.96,435.94,111.17,407.5,112.71z M407.5,179c-10.4,0-18.83-8.43-18.83-18.83s8.43-18.83,18.83-18.83
			s18.83,8.43,18.83,18.83C426.34,170.57,417.91,179,407.5,179z"/>
	</g>
	<g>
		<path class="st0" d="M495.36,88.03c0,0-7.55,71.73,3.12,82.56c0,0,5.05,6.07,14.77,1.03l7.88,32.13c0,0-9.85,8.86-26.84,6.65
			c-0.17-0.02-0.34-0.05-0.51-0.07c-14.22-2.01-25.65-12.65-29.12-26.58c-2.85-11.41-6.04-28.41-5.33-45.24
			c0,0,0.49-52.69,3.2-55.64L495.36,88.03z"/>
	</g>
	<g>
		<path class="st0" d="M534.42,118.56l-17.73-1.31l-1.81,28.07h13.95l-0.98,40.87c0,0-2.13,30.69,29.05,30.69
			s35.62-15.43,35.62-15.43l-10.01-21.83c0,0-8.54,7.22-13.3,7.22c-1.43,0-2.93-0.87-4.33-2.09c-3.89-3.38-6.04-8.34-6.25-13.48
			l-0.91-22.34l17.56,0.66l5.42-26.26l-18.71-0.98l4.92-18.71l-30.37-6.07L534.42,118.56z"/>
	</g>
	<g>
		<path class="st1" d="M798.6,181.81c-3.14-2.96-5.47-5.98-7.72-8.9c-4.5-5.84-8.76-11.35-17.24-11.57h-0.07h-0.07
			c-8.48,0.22-12.74,5.74-17.24,11.58c-2.25,2.92-4.58,5.94-7.72,8.9c-8.42,7.95-12.27,16.47-10.55,23.39
			c1.09,4.37,4.3,7.6,8.81,8.85c1.22,0.34,2.41,0.49,3.56,0.49c4.29,0,8.19-2.03,11.99-4.01c3.75-1.96,7.35-3.82,11.11-3.73h0.17
			h0.08c0.07,0,0.15,0,0.22,0c3.7,0,7.18,1.81,10.86,3.73c4.82,2.51,9.81,5.11,15.56,3.52c4.51-1.25,7.72-4.47,8.81-8.85
			C810.88,198.28,807.03,189.76,798.6,181.81z"/>
		<path class="st1" d="M747.65,177.07c3.31-2.41,4.98-6.53,4.7-11.6c-0.26-4.65-2.17-9.64-5.38-14.04
			c-6.97-9.58-17.6-13.33-24.19-8.53c-3.31,2.41-4.98,6.53-4.7,11.6c0.26,4.65,2.17,9.64,5.38,14.04
			c4.92,6.76,11.66,10.62,17.51,10.62C743.42,179.15,745.71,178.48,747.65,177.07z"/>
		<path class="st1" d="M829.64,155.83c0.28-5.07-1.39-9.18-4.7-11.6c-3.32-2.41-7.75-2.73-12.48-0.9c-4.34,1.68-8.5,5.03-11.7,9.44
			c-6.97,9.58-7.26,20.85-0.67,25.64c1.94,1.41,4.23,2.08,6.67,2.08c5.86,0,12.6-3.86,17.51-10.62
			C827.47,165.47,829.38,160.49,829.64,155.83z"/>
		<path class="st1" d="M746.51,145.88c3.06,3.29,6.61,5.03,10.19,5.03c0.65,0,1.29-0.06,1.93-0.17c4.21-0.75,7.65-3.86,9.7-8.75
			c1.88-4.51,2.37-10.09,1.37-15.72c-2.18-12.22-10.47-20.63-18.84-19.14c-4.21,0.75-7.65,3.86-9.7,8.75
			c-1.89,4.51-2.37,10.09-1.37,15.72C740.8,137.23,743.18,142.3,746.51,145.88z"/>
		<path class="st1" d="M786.17,151.52c0.65,0.12,1.29,0.17,1.94,0.17c7.69,0,14.89-8.03,16.9-19.31c1-5.63,0.51-11.21-1.37-15.72
			c-2.05-4.89-5.49-8-9.7-8.75c-8.38-1.5-16.66,6.91-18.83,19.14C772.92,139.29,777.78,150.03,786.17,151.52z"/>
		<path class="st1" d="M893,162.64l26.26-40.66l-31.94-14.82l-16.11,24.48l-13.43-20.91l-34.72,13.14l25.51,37.15l-26.8,41.56
			l35.93,12.04l13.56-21.94l11.5,17.49l39.18-6.27L893,162.64z"/>
		<path class="st1" d="M679.63,117.4c-14.69-3.6-29.61,2.44-36.52,5.92V68.88l-38.84-2.55l-1.53,143.33l40.38,4.78v-10.56
			c7.17,3.97,22.77,10.91,37.81,6.45c10.94-3.25,19.35-11.85,24.98-25.57c6.66-16.23,5.62-34.49-2.8-48.84
			C697.3,126.02,689.41,119.79,679.63,117.4z M659.24,177.02c-8.29,0-15.04-6.91-15.04-15.4s6.75-15.4,15.04-15.4
			s15.04,6.91,15.04,15.4C674.28,170.11,667.53,177.02,659.24,177.02z"/>
	</g>
</g>
</svg>
