<svg width="345" height="81" fill="none" xmlns="http://www.w3.org/2000/svg"><g clip-path="url(#clip0_114_488)" fill="#fff"><path d="M238.677 27.576l-5.003 6.134a11.654 11.654 0 0 0-8.158-3.453c-2.576 0-3.899.877-3.899 2.576 0 1.394.963 2.13 3.829 3.234l3.505 1.472c7.062 2.865 10.225 5.73 10.225 11.102a10.088 10.088 0 0 1-4.048 8.525c-2.646 2.057-6.028 3.085-10.147 3.085-6.466 0-11.47-2.348-15.071-7.054l5.003-6.028c3.164 3.303 6.616 4.924 10.217 4.924 2.629 0 4.636-1.034 4.636-3.014 0-1.542-1.034-2.13-3.751-3.312l-3.899-1.613c-6.686-2.725-9.928-5.739-9.928-11.102 0-6.843 5.442-10.952 13.389-10.952 5.45-.035 9.761 1.796 13.1 5.476zm-71.798-4.337h-9.122v3.934c-5.038-6.282-17.577-6.878-24.394.552-6.511 7.089-6.826 19.89 0 27.33 6.825 7.439 19.364 6.826 24.394.552v3.934h9.113l.009-36.302zm-18.962 28.136c-12.539 0-12.557-19.979 0-19.979 12.232 0 12.276 19.979 0 19.979zM85.424 70.88h9.113V55.632c5.03 6.274 17.568 6.87 24.394-.552 6.826-7.422 6.51-20.24 0-27.33-6.817-7.43-19.356-6.834-24.394-.552v-3.934h-9.113V70.88zm18.97-39.43c12.548 0 12.53 19.977 0 19.977-12.285-.026-12.24-20.004 0-20.004v.026zm239.913-8.404h-9.078v3.934c-5.039-6.274-17.577-6.87-24.395.552-6.51 7.089-6.817 19.9 0 27.33 6.818 7.43 19.356 6.826 24.395.552v3.978h9.121l-.043-36.346zM325.345 51.19c-12.539 0-12.548-19.979 0-19.979 12.232 0 12.285 19.979 0 19.979zM200.166 22.976l-9.516 23.895-8.893-23.895h-10.515l13.967 34.26c-.438 2.445-2.392 5.17-8.867 5.258V71.1c8.403.578 14.685-3.733 17.647-10.515l16.587-37.626-10.41.018zm102.739 8.999v-9.463a21.572 21.572 0 0 0-3.067-.228 16.362 16.362 0 0 0-11.926 4.626c-3.163 3.163-4.784 7.203-4.784 12.267v20.364h9.954V38.704a6.695 6.695 0 0 1 6.791-7.01 18.82 18.82 0 0 1 3.032.28zm-41.63-9.858a19.082 19.082 0 0 0-18.656 22.891c.754 3.703 2.59 7.1 5.276 9.758 7.939 7.623 21.573 6.747 28.539.964l-3.812-7.063c-5.213 4.004-17.866 5.415-20.46-4.197h25.998c.245-3.663.876-8.947-1.858-13.923-4.591-8.377-13.126-8.43-15.027-8.43zm-.368 8.018c4.18 0 7.509 2.681 7.816 6.887H252.32c1.279-4.206 4.547-6.887 8.587-6.887zM48.035 33.981a17.525 17.525 0 0 1-17.086 14.8A31.142 31.142 0 0 0 .018 79.975h13.634a17.525 17.525 0 0 1 17.323-17.621A31.15 31.15 0 0 0 61.757 33.98H48.035zM0 33.981v28.04a36.144 36.144 0 0 1 13.6-13.415V33.98H0zm30.931-20.398A17.525 17.525 0 0 1 48.08 28.724h13.704A31.15 31.15 0 0 0 30.95.036 31.15 31.15 0 0 0 .096 28.724h13.705a17.525 17.525 0 0 1 17.13-15.141z"/></g><defs><clipPath id="clip0_114_488"><path fill="#fff" transform="translate(0 .01)" d="M0 0h344.307v80H0z"/></clipPath></defs></svg>